<mxfile host="app.diagrams.net" modified="2024-04-27T19:21:30.981Z" agent="Mozilla/5.0 (Windows NT 10.0; Win64; x64) AppleWebKit/537.36 (KHTML, like Gecko) Chrome/124.0.0.0 Safari/537.36" etag="_hmHi3-x0IGnRoGP2pOB" version="24.2.5" type="device">
  <diagram name="Страница — 1" id="DnNcxhPRUoeIBVc5WgHP">
    <mxGraphModel dx="3154" dy="796" grid="0" gridSize="10" guides="1" tooltips="1" connect="1" arrows="1" fold="1" page="1" pageScale="1" pageWidth="827" pageHeight="1169" math="0" shadow="0">
      <root>
        <mxCell id="0" />
        <mxCell id="1" parent="0" />
        <mxCell id="x3qB8snogC61rNuOOBWW-9" value="" style="ellipse;html=1;shape=startState;fillColor=#000000;strokeColor=#ff0000;" parent="1" vertex="1">
          <mxGeometry x="180" y="170" width="30" height="30" as="geometry" />
        </mxCell>
        <mxCell id="x3qB8snogC61rNuOOBWW-10" value="" style="edgeStyle=orthogonalEdgeStyle;html=1;verticalAlign=bottom;endArrow=open;endSize=8;strokeColor=#ff0000;rounded=0;" parent="1" edge="1">
          <mxGeometry relative="1" as="geometry">
            <mxPoint x="194.71" y="310" as="targetPoint" />
            <mxPoint x="195" y="200" as="sourcePoint" />
            <Array as="points" />
          </mxGeometry>
        </mxCell>
        <mxCell id="x3qB8snogC61rNuOOBWW-31" value="Создание заказа" style="edgeLabel;html=1;align=center;verticalAlign=middle;resizable=0;points=[];" parent="x3qB8snogC61rNuOOBWW-10" vertex="1" connectable="0">
          <mxGeometry x="-0.3812" y="-2" relative="1" as="geometry">
            <mxPoint as="offset" />
          </mxGeometry>
        </mxCell>
        <mxCell id="x3qB8snogC61rNuOOBWW-19" value="Открыт" style="rounded=1;whiteSpace=wrap;html=1;arcSize=40;fontColor=#000000;fillColor=#ffffc0;strokeColor=#ff0000;" parent="1" vertex="1">
          <mxGeometry x="135" y="310" width="120" height="40" as="geometry" />
        </mxCell>
        <mxCell id="x3qB8snogC61rNuOOBWW-25" value="" style="edgeStyle=orthogonalEdgeStyle;html=1;verticalAlign=bottom;endArrow=open;endSize=8;strokeColor=#ff0000;rounded=0;exitX=0.5;exitY=1;exitDx=0;exitDy=0;entryX=0.5;entryY=0;entryDx=0;entryDy=0;" parent="1" source="x3qB8snogC61rNuOOBWW-19" target="x3qB8snogC61rNuOOBWW-33" edge="1">
          <mxGeometry relative="1" as="geometry">
            <mxPoint x="195" y="450" as="targetPoint" />
            <mxPoint x="205" y="210" as="sourcePoint" />
            <Array as="points" />
          </mxGeometry>
        </mxCell>
        <mxCell id="x3qB8snogC61rNuOOBWW-32" value="Поиск исполнителя" style="edgeLabel;html=1;align=center;verticalAlign=middle;resizable=0;points=[];" parent="x3qB8snogC61rNuOOBWW-25" vertex="1" connectable="0">
          <mxGeometry x="-0.2312" relative="1" as="geometry">
            <mxPoint as="offset" />
          </mxGeometry>
        </mxCell>
        <mxCell id="x3qB8snogC61rNuOOBWW-33" value="Назначен исполнитель" style="rounded=1;whiteSpace=wrap;html=1;arcSize=40;fontColor=#000000;fillColor=#ffffc0;strokeColor=#ff0000;" parent="1" vertex="1">
          <mxGeometry x="135" y="470" width="120" height="40" as="geometry" />
        </mxCell>
        <mxCell id="x3qB8snogC61rNuOOBWW-34" value="" style="edgeStyle=orthogonalEdgeStyle;html=1;verticalAlign=bottom;endArrow=open;endSize=8;strokeColor=#ff0000;rounded=0;exitX=1;exitY=0.5;exitDx=0;exitDy=0;entryX=1;entryY=0.5;entryDx=0;entryDy=0;" parent="1" source="x3qB8snogC61rNuOOBWW-33" target="x3qB8snogC61rNuOOBWW-19" edge="1">
          <mxGeometry relative="1" as="geometry">
            <mxPoint x="430" y="490" as="targetPoint" />
            <mxPoint x="205" y="360" as="sourcePoint" />
            <Array as="points">
              <mxPoint x="320" y="490" />
              <mxPoint x="320" y="330" />
            </Array>
          </mxGeometry>
        </mxCell>
        <mxCell id="x3qB8snogC61rNuOOBWW-35" value="Замена исполнителя" style="edgeLabel;html=1;align=center;verticalAlign=middle;resizable=0;points=[];" parent="x3qB8snogC61rNuOOBWW-34" vertex="1" connectable="0">
          <mxGeometry x="-0.2312" relative="1" as="geometry">
            <mxPoint as="offset" />
          </mxGeometry>
        </mxCell>
        <mxCell id="x3qB8snogC61rNuOOBWW-36" value="" style="edgeStyle=orthogonalEdgeStyle;html=1;verticalAlign=bottom;endArrow=open;endSize=8;strokeColor=#ff0000;rounded=0;exitX=0.463;exitY=1.004;exitDx=0;exitDy=0;exitPerimeter=0;" parent="1" source="x3qB8snogC61rNuOOBWW-33" edge="1">
          <mxGeometry relative="1" as="geometry">
            <mxPoint x="190" y="620" as="targetPoint" />
            <mxPoint x="190" y="550" as="sourcePoint" />
            <Array as="points" />
          </mxGeometry>
        </mxCell>
        <mxCell id="x3qB8snogC61rNuOOBWW-37" value="Заказ выполнен исполнителем&amp;nbsp;" style="edgeLabel;html=1;align=center;verticalAlign=middle;resizable=0;points=[];" parent="x3qB8snogC61rNuOOBWW-36" vertex="1" connectable="0">
          <mxGeometry x="-0.2312" relative="1" as="geometry">
            <mxPoint as="offset" />
          </mxGeometry>
        </mxCell>
        <mxCell id="x3qB8snogC61rNuOOBWW-38" value="Обмен отзывов" style="rounded=1;whiteSpace=wrap;html=1;arcSize=40;fontColor=#000000;fillColor=#ffffc0;strokeColor=#ff0000;" parent="1" vertex="1">
          <mxGeometry x="130" y="620" width="120" height="40" as="geometry" />
        </mxCell>
        <mxCell id="x3qB8snogC61rNuOOBWW-40" value="" style="edgeStyle=orthogonalEdgeStyle;html=1;verticalAlign=bottom;endArrow=open;endSize=8;strokeColor=#ff0000;rounded=0;exitX=0.5;exitY=1;exitDx=0;exitDy=0;entryX=0.5;entryY=0;entryDx=0;entryDy=0;" parent="1" source="x3qB8snogC61rNuOOBWW-38" target="x3qB8snogC61rNuOOBWW-43" edge="1">
          <mxGeometry relative="1" as="geometry">
            <mxPoint x="190" y="740" as="targetPoint" />
            <mxPoint x="190.26" y="670" as="sourcePoint" />
            <Array as="points" />
          </mxGeometry>
        </mxCell>
        <mxCell id="x3qB8snogC61rNuOOBWW-41" value="Заказчик и исполнитель оставили отзывы" style="edgeLabel;html=1;align=center;verticalAlign=middle;resizable=0;points=[];" parent="x3qB8snogC61rNuOOBWW-40" vertex="1" connectable="0">
          <mxGeometry x="-0.2312" relative="1" as="geometry">
            <mxPoint as="offset" />
          </mxGeometry>
        </mxCell>
        <mxCell id="x3qB8snogC61rNuOOBWW-43" value="Закрыт" style="rounded=1;whiteSpace=wrap;html=1;arcSize=40;fontColor=#000000;fillColor=#ffffc0;strokeColor=#ff0000;" parent="1" vertex="1">
          <mxGeometry x="130" y="750" width="120" height="40" as="geometry" />
        </mxCell>
        <mxCell id="x3qB8snogC61rNuOOBWW-44" value="" style="ellipse;html=1;shape=startState;fillColor=#000000;strokeColor=#ff0000;" parent="1" vertex="1">
          <mxGeometry x="590" y="170" width="30" height="30" as="geometry" />
        </mxCell>
        <mxCell id="x3qB8snogC61rNuOOBWW-45" value="" style="edgeStyle=orthogonalEdgeStyle;html=1;verticalAlign=bottom;endArrow=open;endSize=8;strokeColor=#ff0000;rounded=0;" parent="1" edge="1">
          <mxGeometry relative="1" as="geometry">
            <mxPoint x="604.71" y="310" as="targetPoint" />
            <mxPoint x="605" y="200" as="sourcePoint" />
            <Array as="points" />
          </mxGeometry>
        </mxCell>
        <mxCell id="x3qB8snogC61rNuOOBWW-46" value="Создание жалобы" style="edgeLabel;html=1;align=center;verticalAlign=middle;resizable=0;points=[];" parent="x3qB8snogC61rNuOOBWW-45" vertex="1" connectable="0">
          <mxGeometry x="-0.3812" y="-2" relative="1" as="geometry">
            <mxPoint as="offset" />
          </mxGeometry>
        </mxCell>
        <mxCell id="x3qB8snogC61rNuOOBWW-47" value="Открыта" style="rounded=1;whiteSpace=wrap;html=1;arcSize=40;fontColor=#000000;fillColor=#ffffc0;strokeColor=#ff0000;" parent="1" vertex="1">
          <mxGeometry x="545" y="310" width="120" height="40" as="geometry" />
        </mxCell>
        <mxCell id="x3qB8snogC61rNuOOBWW-48" value="" style="edgeStyle=orthogonalEdgeStyle;html=1;verticalAlign=bottom;endArrow=open;endSize=8;strokeColor=#ff0000;rounded=0;exitX=0.5;exitY=1;exitDx=0;exitDy=0;entryX=0.5;entryY=0;entryDx=0;entryDy=0;" parent="1" source="x3qB8snogC61rNuOOBWW-47" target="x3qB8snogC61rNuOOBWW-50" edge="1">
          <mxGeometry relative="1" as="geometry">
            <mxPoint x="605" y="450" as="targetPoint" />
            <mxPoint x="615" y="210" as="sourcePoint" />
            <Array as="points" />
          </mxGeometry>
        </mxCell>
        <mxCell id="x3qB8snogC61rNuOOBWW-49" value="Поиск администратора" style="edgeLabel;html=1;align=center;verticalAlign=middle;resizable=0;points=[];" parent="x3qB8snogC61rNuOOBWW-48" vertex="1" connectable="0">
          <mxGeometry x="-0.2312" relative="1" as="geometry">
            <mxPoint as="offset" />
          </mxGeometry>
        </mxCell>
        <mxCell id="x3qB8snogC61rNuOOBWW-50" value="Рассматривается" style="rounded=1;whiteSpace=wrap;html=1;arcSize=40;fontColor=#000000;fillColor=#ffffc0;strokeColor=#ff0000;" parent="1" vertex="1">
          <mxGeometry x="545" y="470" width="120" height="40" as="geometry" />
        </mxCell>
        <mxCell id="x3qB8snogC61rNuOOBWW-53" value="" style="edgeStyle=orthogonalEdgeStyle;html=1;verticalAlign=bottom;endArrow=open;endSize=8;strokeColor=#ff0000;rounded=0;exitX=0.463;exitY=1.004;exitDx=0;exitDy=0;exitPerimeter=0;" parent="1" source="x3qB8snogC61rNuOOBWW-50" edge="1">
          <mxGeometry relative="1" as="geometry">
            <mxPoint x="600" y="620" as="targetPoint" />
            <mxPoint x="600" y="550" as="sourcePoint" />
            <Array as="points" />
          </mxGeometry>
        </mxCell>
        <mxCell id="x3qB8snogC61rNuOOBWW-54" value="Выполнение действий администратором" style="edgeLabel;html=1;align=center;verticalAlign=middle;resizable=0;points=[];" parent="x3qB8snogC61rNuOOBWW-53" vertex="1" connectable="0">
          <mxGeometry x="-0.2312" relative="1" as="geometry">
            <mxPoint as="offset" />
          </mxGeometry>
        </mxCell>
        <mxCell id="x3qB8snogC61rNuOOBWW-55" value="Закрыта" style="rounded=1;whiteSpace=wrap;html=1;arcSize=40;fontColor=#000000;fillColor=#ffffc0;strokeColor=#ff0000;" parent="1" vertex="1">
          <mxGeometry x="540" y="620" width="120" height="40" as="geometry" />
        </mxCell>
        <mxCell id="x9KtA8WVbC8EuoqyaGkf-1" value="" style="ellipse;html=1;shape=startState;fillColor=#000000;strokeColor=#ff0000;" vertex="1" parent="1">
          <mxGeometry x="-620" y="170" width="30" height="30" as="geometry" />
        </mxCell>
        <mxCell id="x9KtA8WVbC8EuoqyaGkf-2" value="" style="edgeStyle=orthogonalEdgeStyle;html=1;verticalAlign=bottom;endArrow=open;endSize=8;strokeColor=#ff0000;rounded=0;" edge="1" parent="1">
          <mxGeometry relative="1" as="geometry">
            <mxPoint x="-605.29" y="310" as="targetPoint" />
            <mxPoint x="-605" y="200" as="sourcePoint" />
            <Array as="points" />
          </mxGeometry>
        </mxCell>
        <mxCell id="x9KtA8WVbC8EuoqyaGkf-3" value="Поиск заказа" style="edgeLabel;html=1;align=center;verticalAlign=middle;resizable=0;points=[];" vertex="1" connectable="0" parent="x9KtA8WVbC8EuoqyaGkf-2">
          <mxGeometry x="-0.3812" y="-2" relative="1" as="geometry">
            <mxPoint x="2" y="6" as="offset" />
          </mxGeometry>
        </mxCell>
        <mxCell id="x9KtA8WVbC8EuoqyaGkf-4" value="Заказ найден" style="rounded=1;whiteSpace=wrap;html=1;arcSize=40;fontColor=#000000;fillColor=#ffffc0;strokeColor=#ff0000;" vertex="1" parent="1">
          <mxGeometry x="-665" y="310" width="120" height="40" as="geometry" />
        </mxCell>
        <mxCell id="x9KtA8WVbC8EuoqyaGkf-5" value="" style="edgeStyle=orthogonalEdgeStyle;html=1;verticalAlign=bottom;endArrow=open;endSize=8;strokeColor=#ff0000;rounded=0;exitX=0.5;exitY=1;exitDx=0;exitDy=0;entryX=0.5;entryY=0;entryDx=0;entryDy=0;" edge="1" parent="1" source="x9KtA8WVbC8EuoqyaGkf-4" target="x9KtA8WVbC8EuoqyaGkf-7">
          <mxGeometry relative="1" as="geometry">
            <mxPoint x="-605" y="450" as="targetPoint" />
            <mxPoint x="-595" y="210" as="sourcePoint" />
            <Array as="points" />
          </mxGeometry>
        </mxCell>
        <mxCell id="x9KtA8WVbC8EuoqyaGkf-6" value="Отправление заявки на выполнение" style="edgeLabel;html=1;align=center;verticalAlign=middle;resizable=0;points=[];" vertex="1" connectable="0" parent="x9KtA8WVbC8EuoqyaGkf-5">
          <mxGeometry x="-0.2312" relative="1" as="geometry">
            <mxPoint as="offset" />
          </mxGeometry>
        </mxCell>
        <mxCell id="x9KtA8WVbC8EuoqyaGkf-7" value="Подтверждение заявки заказчиком" style="rounded=1;whiteSpace=wrap;html=1;arcSize=40;fontColor=#000000;fillColor=#ffffc0;strokeColor=#ff0000;" vertex="1" parent="1">
          <mxGeometry x="-665" y="470" width="120" height="40" as="geometry" />
        </mxCell>
        <mxCell id="x9KtA8WVbC8EuoqyaGkf-8" value="" style="edgeStyle=orthogonalEdgeStyle;html=1;verticalAlign=bottom;endArrow=open;endSize=8;strokeColor=#ff0000;rounded=0;exitX=1;exitY=0.5;exitDx=0;exitDy=0;" edge="1" parent="1" source="x9KtA8WVbC8EuoqyaGkf-7">
          <mxGeometry relative="1" as="geometry">
            <mxPoint x="-570" y="240" as="targetPoint" />
            <mxPoint x="-595" y="360" as="sourcePoint" />
            <Array as="points">
              <mxPoint x="-420" y="490" />
              <mxPoint x="-420" y="240" />
            </Array>
          </mxGeometry>
        </mxCell>
        <mxCell id="x9KtA8WVbC8EuoqyaGkf-9" value="Заказчик изменил исполнителя" style="edgeLabel;html=1;align=center;verticalAlign=middle;resizable=0;points=[];" vertex="1" connectable="0" parent="x9KtA8WVbC8EuoqyaGkf-8">
          <mxGeometry x="-0.2312" relative="1" as="geometry">
            <mxPoint x="7" y="-44" as="offset" />
          </mxGeometry>
        </mxCell>
        <mxCell id="x9KtA8WVbC8EuoqyaGkf-10" value="" style="edgeStyle=orthogonalEdgeStyle;html=1;verticalAlign=bottom;endArrow=open;endSize=8;strokeColor=#ff0000;rounded=0;exitX=0.463;exitY=1.004;exitDx=0;exitDy=0;exitPerimeter=0;" edge="1" parent="1" source="x9KtA8WVbC8EuoqyaGkf-7">
          <mxGeometry relative="1" as="geometry">
            <mxPoint x="-610" y="620" as="targetPoint" />
            <mxPoint x="-610" y="550" as="sourcePoint" />
            <Array as="points" />
          </mxGeometry>
        </mxCell>
        <mxCell id="x9KtA8WVbC8EuoqyaGkf-11" value="Заказ выполнен&amp;nbsp;" style="edgeLabel;html=1;align=center;verticalAlign=middle;resizable=0;points=[];" vertex="1" connectable="0" parent="x9KtA8WVbC8EuoqyaGkf-10">
          <mxGeometry x="-0.2312" relative="1" as="geometry">
            <mxPoint as="offset" />
          </mxGeometry>
        </mxCell>
        <mxCell id="x9KtA8WVbC8EuoqyaGkf-12" value="Обмен отзывов" style="rounded=1;whiteSpace=wrap;html=1;arcSize=40;fontColor=#000000;fillColor=#ffffc0;strokeColor=#ff0000;" vertex="1" parent="1">
          <mxGeometry x="-670" y="620" width="120" height="40" as="geometry" />
        </mxCell>
        <mxCell id="x9KtA8WVbC8EuoqyaGkf-13" value="" style="edgeStyle=orthogonalEdgeStyle;html=1;verticalAlign=bottom;endArrow=open;endSize=8;strokeColor=#ff0000;rounded=0;exitX=0.5;exitY=1;exitDx=0;exitDy=0;entryX=0.5;entryY=0;entryDx=0;entryDy=0;" edge="1" parent="1" source="x9KtA8WVbC8EuoqyaGkf-12" target="x9KtA8WVbC8EuoqyaGkf-15">
          <mxGeometry relative="1" as="geometry">
            <mxPoint x="-610" y="740" as="targetPoint" />
            <mxPoint x="-609.74" y="670" as="sourcePoint" />
            <Array as="points" />
          </mxGeometry>
        </mxCell>
        <mxCell id="x9KtA8WVbC8EuoqyaGkf-14" value="Заказчик и исполнитель оставили отзывы" style="edgeLabel;html=1;align=center;verticalAlign=middle;resizable=0;points=[];" vertex="1" connectable="0" parent="x9KtA8WVbC8EuoqyaGkf-13">
          <mxGeometry x="-0.2312" relative="1" as="geometry">
            <mxPoint as="offset" />
          </mxGeometry>
        </mxCell>
        <mxCell id="x9KtA8WVbC8EuoqyaGkf-15" value="Закрыт" style="rounded=1;whiteSpace=wrap;html=1;arcSize=40;fontColor=#000000;fillColor=#ffffc0;strokeColor=#ff0000;" vertex="1" parent="1">
          <mxGeometry x="-670" y="750" width="120" height="40" as="geometry" />
        </mxCell>
        <mxCell id="x9KtA8WVbC8EuoqyaGkf-16" value="" style="ellipse;html=1;shape=startState;fillColor=#000000;strokeColor=#ff0000;" vertex="1" parent="1">
          <mxGeometry x="-210" y="170" width="30" height="30" as="geometry" />
        </mxCell>
        <mxCell id="x9KtA8WVbC8EuoqyaGkf-17" value="" style="edgeStyle=orthogonalEdgeStyle;html=1;verticalAlign=bottom;endArrow=open;endSize=8;strokeColor=#ff0000;rounded=0;" edge="1" parent="1">
          <mxGeometry relative="1" as="geometry">
            <mxPoint x="-195.28999999999996" y="310" as="targetPoint" />
            <mxPoint x="-195" y="200" as="sourcePoint" />
            <Array as="points" />
          </mxGeometry>
        </mxCell>
        <mxCell id="x9KtA8WVbC8EuoqyaGkf-18" value="Создание жалобы" style="edgeLabel;html=1;align=center;verticalAlign=middle;resizable=0;points=[];" vertex="1" connectable="0" parent="x9KtA8WVbC8EuoqyaGkf-17">
          <mxGeometry x="-0.3812" y="-2" relative="1" as="geometry">
            <mxPoint as="offset" />
          </mxGeometry>
        </mxCell>
        <mxCell id="x9KtA8WVbC8EuoqyaGkf-19" value="Открыта" style="rounded=1;whiteSpace=wrap;html=1;arcSize=40;fontColor=#000000;fillColor=#ffffc0;strokeColor=#ff0000;" vertex="1" parent="1">
          <mxGeometry x="-255" y="310" width="120" height="40" as="geometry" />
        </mxCell>
        <mxCell id="x9KtA8WVbC8EuoqyaGkf-20" value="" style="edgeStyle=orthogonalEdgeStyle;html=1;verticalAlign=bottom;endArrow=open;endSize=8;strokeColor=#ff0000;rounded=0;exitX=0.5;exitY=1;exitDx=0;exitDy=0;entryX=0.5;entryY=0;entryDx=0;entryDy=0;" edge="1" parent="1" source="x9KtA8WVbC8EuoqyaGkf-19" target="x9KtA8WVbC8EuoqyaGkf-22">
          <mxGeometry relative="1" as="geometry">
            <mxPoint x="-195" y="450" as="targetPoint" />
            <mxPoint x="-185" y="210" as="sourcePoint" />
            <Array as="points" />
          </mxGeometry>
        </mxCell>
        <mxCell id="x9KtA8WVbC8EuoqyaGkf-21" value="Поиск администратора" style="edgeLabel;html=1;align=center;verticalAlign=middle;resizable=0;points=[];" vertex="1" connectable="0" parent="x9KtA8WVbC8EuoqyaGkf-20">
          <mxGeometry x="-0.2312" relative="1" as="geometry">
            <mxPoint as="offset" />
          </mxGeometry>
        </mxCell>
        <mxCell id="x9KtA8WVbC8EuoqyaGkf-22" value="Рассматривается" style="rounded=1;whiteSpace=wrap;html=1;arcSize=40;fontColor=#000000;fillColor=#ffffc0;strokeColor=#ff0000;" vertex="1" parent="1">
          <mxGeometry x="-255" y="470" width="120" height="40" as="geometry" />
        </mxCell>
        <mxCell id="x9KtA8WVbC8EuoqyaGkf-23" value="" style="edgeStyle=orthogonalEdgeStyle;html=1;verticalAlign=bottom;endArrow=open;endSize=8;strokeColor=#ff0000;rounded=0;exitX=0.463;exitY=1.004;exitDx=0;exitDy=0;exitPerimeter=0;" edge="1" parent="1" source="x9KtA8WVbC8EuoqyaGkf-22">
          <mxGeometry relative="1" as="geometry">
            <mxPoint x="-200" y="620" as="targetPoint" />
            <mxPoint x="-200" y="550" as="sourcePoint" />
            <Array as="points" />
          </mxGeometry>
        </mxCell>
        <mxCell id="x9KtA8WVbC8EuoqyaGkf-24" value="Выполнение действий администратором" style="edgeLabel;html=1;align=center;verticalAlign=middle;resizable=0;points=[];" vertex="1" connectable="0" parent="x9KtA8WVbC8EuoqyaGkf-23">
          <mxGeometry x="-0.2312" relative="1" as="geometry">
            <mxPoint as="offset" />
          </mxGeometry>
        </mxCell>
        <mxCell id="x9KtA8WVbC8EuoqyaGkf-25" value="Закрыта" style="rounded=1;whiteSpace=wrap;html=1;arcSize=40;fontColor=#000000;fillColor=#ffffc0;strokeColor=#ff0000;" vertex="1" parent="1">
          <mxGeometry x="-260" y="620" width="120" height="40" as="geometry" />
        </mxCell>
        <mxCell id="x9KtA8WVbC8EuoqyaGkf-26" value="" style="ellipse;html=1;shape=startState;fillColor=#000000;strokeColor=#ff0000;" vertex="1" parent="1">
          <mxGeometry x="-1116" y="170" width="30" height="30" as="geometry" />
        </mxCell>
        <mxCell id="x9KtA8WVbC8EuoqyaGkf-27" value="" style="edgeStyle=orthogonalEdgeStyle;html=1;verticalAlign=bottom;endArrow=open;endSize=8;strokeColor=#ff0000;rounded=0;" edge="1" parent="1">
          <mxGeometry relative="1" as="geometry">
            <mxPoint x="-1101.29" y="310" as="targetPoint" />
            <mxPoint x="-1101" y="200" as="sourcePoint" />
            <Array as="points" />
          </mxGeometry>
        </mxCell>
        <mxCell id="x9KtA8WVbC8EuoqyaGkf-28" value="Просмотр заказов" style="edgeLabel;html=1;align=center;verticalAlign=middle;resizable=0;points=[];" vertex="1" connectable="0" parent="x9KtA8WVbC8EuoqyaGkf-27">
          <mxGeometry x="-0.3812" y="-2" relative="1" as="geometry">
            <mxPoint x="2" y="6" as="offset" />
          </mxGeometry>
        </mxCell>
        <mxCell id="x9KtA8WVbC8EuoqyaGkf-29" value="Просмотр конкретного заказа" style="rounded=1;whiteSpace=wrap;html=1;arcSize=40;fontColor=#000000;fillColor=#ffffc0;strokeColor=#ff0000;" vertex="1" parent="1">
          <mxGeometry x="-1161" y="310" width="120" height="40" as="geometry" />
        </mxCell>
        <mxCell id="x9KtA8WVbC8EuoqyaGkf-30" value="" style="edgeStyle=orthogonalEdgeStyle;html=1;verticalAlign=bottom;endArrow=open;endSize=8;strokeColor=#ff0000;rounded=0;exitX=0.5;exitY=1;exitDx=0;exitDy=0;entryX=0.5;entryY=0;entryDx=0;entryDy=0;" edge="1" parent="1" source="x9KtA8WVbC8EuoqyaGkf-29">
          <mxGeometry relative="1" as="geometry">
            <mxPoint x="-1101" y="470" as="targetPoint" />
            <mxPoint x="-1091" y="210" as="sourcePoint" />
            <Array as="points" />
          </mxGeometry>
        </mxCell>
        <mxCell id="x9KtA8WVbC8EuoqyaGkf-31" value="Просмотр окончен" style="edgeLabel;html=1;align=center;verticalAlign=middle;resizable=0;points=[];" vertex="1" connectable="0" parent="x9KtA8WVbC8EuoqyaGkf-30">
          <mxGeometry x="-0.2312" relative="1" as="geometry">
            <mxPoint as="offset" />
          </mxGeometry>
        </mxCell>
        <mxCell id="x9KtA8WVbC8EuoqyaGkf-33" value="" style="edgeStyle=orthogonalEdgeStyle;html=1;verticalAlign=bottom;endArrow=open;endSize=8;strokeColor=#ff0000;rounded=0;exitX=1;exitY=0.5;exitDx=0;exitDy=0;" edge="1" parent="1" source="x9KtA8WVbC8EuoqyaGkf-29">
          <mxGeometry relative="1" as="geometry">
            <mxPoint x="-1046" y="240" as="targetPoint" />
            <mxPoint x="-1091" y="360" as="sourcePoint" />
            <Array as="points">
              <mxPoint x="-976" y="330" />
              <mxPoint x="-976" y="240" />
            </Array>
          </mxGeometry>
        </mxCell>
        <mxCell id="x9KtA8WVbC8EuoqyaGkf-34" value="Заказ просмотрен" style="edgeLabel;html=1;align=center;verticalAlign=middle;resizable=0;points=[];" vertex="1" connectable="0" parent="x9KtA8WVbC8EuoqyaGkf-33">
          <mxGeometry x="-0.2312" relative="1" as="geometry">
            <mxPoint y="-25" as="offset" />
          </mxGeometry>
        </mxCell>
        <mxCell id="x9KtA8WVbC8EuoqyaGkf-40" value="Выход" style="rounded=1;whiteSpace=wrap;html=1;arcSize=40;fontColor=#000000;fillColor=#ffffc0;strokeColor=#ff0000;" vertex="1" parent="1">
          <mxGeometry x="-1161" y="470" width="120" height="40" as="geometry" />
        </mxCell>
        <mxCell id="x9KtA8WVbC8EuoqyaGkf-51" value="Состояния для заказчика" style="text;html=1;align=center;verticalAlign=middle;whiteSpace=wrap;rounded=0;fontSize=18;" vertex="1" parent="1">
          <mxGeometry x="298" y="80" width="230" height="30" as="geometry" />
        </mxCell>
        <mxCell id="x9KtA8WVbC8EuoqyaGkf-52" value="Состояния для фрилансера" style="text;html=1;align=center;verticalAlign=middle;whiteSpace=wrap;rounded=0;fontSize=18;" vertex="1" parent="1">
          <mxGeometry x="-537" y="80" width="248" height="30" as="geometry" />
        </mxCell>
        <mxCell id="x9KtA8WVbC8EuoqyaGkf-53" value="Состояния для гостя" style="text;html=1;align=center;verticalAlign=middle;whiteSpace=wrap;rounded=0;fontSize=18;" vertex="1" parent="1">
          <mxGeometry x="-1365" y="80" width="248" height="30" as="geometry" />
        </mxCell>
        <mxCell id="x9KtA8WVbC8EuoqyaGkf-54" value="" style="ellipse;html=1;shape=startState;fillColor=#000000;strokeColor=#ff0000;" vertex="1" parent="1">
          <mxGeometry x="-1453" y="170" width="30" height="30" as="geometry" />
        </mxCell>
        <mxCell id="x9KtA8WVbC8EuoqyaGkf-55" value="" style="edgeStyle=orthogonalEdgeStyle;html=1;verticalAlign=bottom;endArrow=open;endSize=8;strokeColor=#ff0000;rounded=0;" edge="1" parent="1">
          <mxGeometry relative="1" as="geometry">
            <mxPoint x="-1438.29" y="310" as="targetPoint" />
            <mxPoint x="-1438" y="200" as="sourcePoint" />
            <Array as="points" />
          </mxGeometry>
        </mxCell>
        <mxCell id="x9KtA8WVbC8EuoqyaGkf-56" value="Просмотр фрилансеров" style="edgeLabel;html=1;align=center;verticalAlign=middle;resizable=0;points=[];" vertex="1" connectable="0" parent="x9KtA8WVbC8EuoqyaGkf-55">
          <mxGeometry x="-0.3812" y="-2" relative="1" as="geometry">
            <mxPoint x="2" y="6" as="offset" />
          </mxGeometry>
        </mxCell>
        <mxCell id="x9KtA8WVbC8EuoqyaGkf-57" value="Просмотр конкретного фрилансера" style="rounded=1;whiteSpace=wrap;html=1;arcSize=40;fontColor=#000000;fillColor=#ffffc0;strokeColor=#ff0000;" vertex="1" parent="1">
          <mxGeometry x="-1498" y="310" width="120" height="40" as="geometry" />
        </mxCell>
        <mxCell id="x9KtA8WVbC8EuoqyaGkf-58" value="" style="edgeStyle=orthogonalEdgeStyle;html=1;verticalAlign=bottom;endArrow=open;endSize=8;strokeColor=#ff0000;rounded=0;exitX=0.5;exitY=1;exitDx=0;exitDy=0;entryX=0.5;entryY=0;entryDx=0;entryDy=0;" edge="1" parent="1" source="x9KtA8WVbC8EuoqyaGkf-57">
          <mxGeometry relative="1" as="geometry">
            <mxPoint x="-1438" y="470" as="targetPoint" />
            <mxPoint x="-1428" y="210" as="sourcePoint" />
            <Array as="points" />
          </mxGeometry>
        </mxCell>
        <mxCell id="x9KtA8WVbC8EuoqyaGkf-59" value="Просмотр окончен" style="edgeLabel;html=1;align=center;verticalAlign=middle;resizable=0;points=[];" vertex="1" connectable="0" parent="x9KtA8WVbC8EuoqyaGkf-58">
          <mxGeometry x="-0.2312" relative="1" as="geometry">
            <mxPoint as="offset" />
          </mxGeometry>
        </mxCell>
        <mxCell id="x9KtA8WVbC8EuoqyaGkf-60" value="" style="edgeStyle=orthogonalEdgeStyle;html=1;verticalAlign=bottom;endArrow=open;endSize=8;strokeColor=#ff0000;rounded=0;exitX=1;exitY=0.5;exitDx=0;exitDy=0;" edge="1" parent="1" source="x9KtA8WVbC8EuoqyaGkf-57">
          <mxGeometry relative="1" as="geometry">
            <mxPoint x="-1375" y="240" as="targetPoint" />
            <mxPoint x="-1428" y="360" as="sourcePoint" />
            <Array as="points">
              <mxPoint x="-1313" y="330" />
              <mxPoint x="-1313" y="240" />
              <mxPoint x="-1368" y="240" />
            </Array>
          </mxGeometry>
        </mxCell>
        <mxCell id="x9KtA8WVbC8EuoqyaGkf-61" value="Фрилансер просмотрен" style="edgeLabel;html=1;align=center;verticalAlign=middle;resizable=0;points=[];" vertex="1" connectable="0" parent="x9KtA8WVbC8EuoqyaGkf-60">
          <mxGeometry x="-0.2312" relative="1" as="geometry">
            <mxPoint y="-32" as="offset" />
          </mxGeometry>
        </mxCell>
        <mxCell id="x9KtA8WVbC8EuoqyaGkf-62" value="Выход" style="rounded=1;whiteSpace=wrap;html=1;arcSize=40;fontColor=#000000;fillColor=#ffffc0;strokeColor=#ff0000;" vertex="1" parent="1">
          <mxGeometry x="-1498" y="470" width="120" height="40" as="geometry" />
        </mxCell>
      </root>
    </mxGraphModel>
  </diagram>
</mxfile>
